{"title":"Ashlynn Brooke from Ashlynn and Friends III [VPSR].avi","uid":10784457,"size":264480556,"categoryP":"porn","categoryS":"other","magnet":"?xt=urn:btih:247a536a5605b3b56d7f9b853f776cac66c57654&amp;dn=Ashlynn+Brooke+from+Ashlynn+and+Friends+III+%5BVPSR%5D.avi&amp;tr=udp%3A%2F%2Ftracker.openbittorrent.com%3A80&amp;tr=udp%3A%2F%2Fopen.demonii.com%3A1337&amp;tr=udp%3A%2F%2Ftracker.coppersurfer.tk%3A6969&amp;tr=udp%3A%2F%2Fexodus.desync.com%3A6969","seeders":0,"leechers":1,"uploader":"vpsr","files":1,"time":1408198247,"description":"Ashlynn Brooke from Ashlynn and Friends III [VPSR].avi\n\n &lt;a href=&quot;\nhttp://s25.postimg.org/4jh9123dr/vlcsnap_2014_08_16_13h02m57s163.png&quot; rel=&quot;nofollow&quot; target=&quot;_NEW&quot;&gt;\nhttp://s25.postimg.org/4jh9123dr/vlcsnap_2014_08_16_13h02m57s163.png&lt;/a&gt;\n\n &lt;a href=&quot;\nhttp://s25.postimg.org/puet5bli7/Ashlynn_Brooke_from_Ashlynn_and_Friends_III.jpg&quot; rel=&quot;nofollow&quot; target=&quot;_NEW&quot;&gt;\nhttp://s25.postimg.org/puet5bli7/Ashlynn_Brooke_from_Ashlynn_and_Friends_III.jpg&lt;/a&gt;\n\n\nFILE INFO\n\n\nGeneral\nComplete name                            : Ashlynn Brooke from Ashlynn and Friends III [VPSR].avi\nFormat                                   : AVI\nFormat/Info                              : Audio Video Interleave\nFile size                                : 252 MiB\nDuration                                 : 17mn 25s\nOverall bit rate                         : 2 025 Kbps\nWriting library                          : MPlayer\n\nVideo\nID                                       : 0\nFormat                                   : MPEG-4 Visual\nFormat profile                           : Simple@L1\nFormat settings, BVOP                    : No\nFormat settings, QPel                    : No\nFormat settings, GMC                     : No warppoints\nFormat settings, Matrix                  : Default (H.263)\nCodec ID                                 : DX50\nCodec ID/Hint                            : DivX 5\nDuration                                 : 17mn 25s\nBit rate                                 : 1 755 Kbps\nWidth                                    : 512 pixels\nHeight                                   : 288 pixels\nDisplay aspect ratio                     : 16:9\nFrame rate                               : 29.970 fps\nColor space                              : YUV\nChroma subsampling                       : 4:2:0\nBit depth                                : 8 bits\nScan type                                : Interlaced\nScan order                               : Top Field First\nCompression mode                         : Lossy\nBits/(Pixel*Frame)                       : 0.397\nStream size                              : 219 MiB (87%)\nWriting library                          : Lavc52.72.2\n\nAudio\nID                                       : 1\nFormat                                   : MPEG Audio\nFormat version                           : Version 1\nFormat profile                           : Layer 3\nMode                                     : Joint stereo\nMode extension                           : MS Stereo\nCodec ID                                 : 55\nCodec ID/Hint                            : MP3\nDuration                                 : 17mn 25s\nBit rate mode                            : Constant\nBit rate                                 : 256 Kbps\nChannel(s)                               : 2 channels\nSampling rate                            : 44.1 KHz\nCompression mode                         : Lossy\nStream size                              : 31.9 MiB (13%)\nAlignment                                : Aligned on interleaves\nInterleave, duration                     : 26 ms (0.78 video frame)\nInterleave, preload duration             : 809 ms\n\n","torrent":{"xt":"urn:btih:247a536a5605b3b56d7f9b853f776cac66c57654","amp;dn":"Ashlynn+Brooke+from+Ashlynn+and+Friends+III+%5BVPSR%5D.avi","amp;tr":["udp%3A%2F%2Ftracker.openbittorrent.com%3A80","udp%3A%2F%2Fopen.demonii.com%3A1337","udp%3A%2F%2Ftracker.coppersurfer.tk%3A6969","udp%3A%2F%2Fexodus.desync.com%3A6969"],"infoHash":"247a536a5605b3b56d7f9b853f776cac66c57654","infoHashBuffer":{"type":"Buffer","data":[36,122,83,106,86,5,179,181,109,127,155,133,63,119,108,172,102,197,118,84]},"announce":[],"urlList":[]}}